<?xml version="1.0" encoding="UTF-8"?>
<svg id="_レイヤー_2" data-name="レイヤー 2" xmlns="http://www.w3.org/2000/svg" width="374" height="77.36" viewBox="0 0 374 77.36">
  <defs>
    <style>
      .cls-1 {
        fill: #d3e9ea;
      }

      .cls-2 {
        fill: #fff;
      }

      .cls-3 {
        fill: #479d93;
      }
    </style>
  </defs>
  <g id="_レイヤー_1-2" data-name="レイヤー 1">
    <g>
      <rect class="cls-1" x="0" y="0" width="374" height="77.36"/>
      <g>
        <g>
          <path class="cls-3" d="M28.44,36.41c.02-1.97.63-3.49,1.83-4.55,1.13-1.05,2.47-1.58,4.03-1.58s2.98.53,4.11,1.58c1.15,1.06,1.74,2.58,1.78,4.56v9.42c-.04,1.96-.63,3.48-1.78,4.54-1.13,1.05-2.5,1.59-4.11,1.61-1.56-.02-2.91-.56-4.03-1.61-1.2-1.06-1.81-2.57-1.83-4.53v-9.44ZM37.23,36.61c-.06-2.14-1.03-3.23-2.92-3.27-1.9.04-2.87,1.13-2.91,3.27v9.07c.04,2.16,1.01,3.25,2.91,3.27,1.89-.02,2.87-1.11,2.92-3.27v-9.07Z"/>
          <path class="cls-3" d="M46.99,39.47h1.02c1.01,0,1.8-.29,2.36-.87.56-.56.84-1.29.84-2.18-.02-.9-.31-1.64-.87-2.22-.56-.56-1.28-.85-2.16-.87-.63,0-1.21.21-1.73.63-.55.42-.92,1.07-1.11,1.96h-2.97c.15-1.58.77-2.91,1.86-4,1.07-1.07,2.35-1.62,3.83-1.64,1.88.02,3.38.64,4.48,1.86,1.06,1.19,1.6,2.6,1.62,4.22,0,.82-.15,1.61-.44,2.37-.34.76-.95,1.44-1.83,2.04.9.59,1.55,1.29,1.95,2.11.38.82.57,1.68.57,2.58-.02,2-.62,3.58-1.8,4.73-1.16,1.18-2.66,1.78-4.48,1.8-1.41,0-2.66-.47-3.74-1.4-1.09-.94-1.79-2.29-2.11-4.06h2.97c.26.71.64,1.29,1.12,1.73.49.46,1.14.69,1.96.69.87,0,1.6-.31,2.2-.93.61-.58.92-1.4.94-2.47-.02-1.09-.33-1.93-.94-2.53-.6-.58-1.35-.87-2.27-.87h-1.27v-2.69Z"/>
        </g>
        <path class="cls-3" d="M19.56,43.68c-.76.79-1.8,1.41-3.01,1.81-.17-.32-.31-.52-.56-.82,1.2-.29,2.21-.79,2.94-1.47h-1.49c-.05.18-.06.22-.13.43l-1.01-.02c.24-.56.38-1.02.49-1.58.08-.39.14-.77.14-.95.17.02.4.03.82.03h1.78l-.02-.58h-1.93c-.34,0-.56,0-.8.04v-.83c-.1.08-.13.12-.26.23-.17-.29-.35-.5-.56-.69.74-.57,1.16-1.12,1.35-1.76l.93.17c-.11.23-.14.29-.25.47h1.11c.41,0,.64-.02.85-.04v.7c.34-.4.55-.78.7-1.3l.92.16q-.07.17-.22.49h1.65c.46,0,.67,0,.95-.05v.9c-.26-.04-.52-.05-.9-.05h-.68c.22.33.23.35.38.59l-.71.2h.41c.43,0,.6,0,.81-.03-.03.16-.04.3-.04.61v.91c0,.31,0,.45.04.63-.2-.02-.47-.03-.81-.03h-1.99v.57h2.47c.33,0,.52,0,.74-.03-.02.11-.02.17-.03.26t-.03.26s-.02.22-.05.55c-.09.86-.14,1.07-.31,1.27-.17.2-.43.26-1.02.26-.25,0-.43,0-.8-.03-.05-.36-.11-.56-.22-.85.33.04.74.08.95.08.47,0,.49-.05.55-1.01h-2.22l.02,1.45c0,.46.02.68.06.95h-1.02c.04-.25.05-.4.05-.75v-.22l-.02-.96ZM18.33,39.77c-.11-.29-.22-.5-.39-.8h-.48c-.21.29-.4.5-.68.77.21.03.38.04.79.04h.75ZM19.53,41.87h-1.77c-.03.19-.04.21-.12.57h1.9v-.57ZM20.03,39.77c-.13-.16-.31-.33-.56-.51.15-.12.2-.15.31-.27-.15,0-.31-.02-.49-.02h-.48c.11.17.17.26.34.58l-.71.22h1.58ZM21.86,39.77c-.1-.22-.26-.51-.44-.79h-.53c-.23.33-.42.55-.69.79h1.66ZM20.43,41.11h1.87v-.58h-1.88v.58Z"/>
        <path class="cls-3" d="M66.98,45.58v-.47h-5.38v.47h-1.01c.04-.28.05-.64.05-1.12v-5.46c0-.42-.02-.69-.05-1.04.31.04.59.05,1.02.05h5.36c.42,0,.7,0,1.02-.05-.04.32-.04.6-.04,1.04v5.47c0,.47.02.89.04,1.11h-1ZM61.6,44.25h5.38v-5.39h-5.38v5.39ZM65.2,39.84c.38,0,.6,0,.83-.03-.02.21-.03.41-.03.68v2.06c0,.29,0,.47.03.68-.26-.02-.47-.03-.83-.03h-1.85c-.43,0-.57,0-.84.03.03-.23.04-.42.04-.68v-2.06c0-.25,0-.45-.04-.68.22.02.46.03.84.03h1.85ZM63.46,42.41h1.63v-1.76h-1.63v1.76Z"/>
      </g>
      <rect class="cls-2" x="78.41" y="14.39" width="287.86" height="51.32" rx="25.35" ry="25.35"/>
      <g>
        <path class="cls-3" d="M113.92,40.55c.17.99.29,1.41.56,2.04.87-.58,1.55-1.19,1.95-1.72l1.14,1.22q-.25.2-1,.82c-.39.32-.77.61-1.34.99.63.9,1.31,1.51,2.57,2.31-.39.48-.7.92-1.12,1.61-1.41-1.1-2.12-1.85-2.82-2.97l.03,1.48c-1.46.51-3.42,1.07-4.81,1.36q-.27.07-.56.15l-.31-1.38c-1.09.32-2.6.68-3.62.87-.46.1-1.36.27-1.65.32l-.31-1.82c.71-.02,1.33-.08,2.74-.32v-4.59h-.95c-.65,0-1.14.03-1.58.08v-1.68c.42.05.94.08,1.6.08h.94v-1.19h-.36c-.37,0-.66.02-1,.05v-.73c-.39.36-.46.41-.82.7-.25-.7-.41-1-.8-1.61.61-.41,1.22-.95,1.7-1.5.56-.61.92-1.19,1.29-2.06h1.8c.44.92.8,1.39,1.56,2.07.25.24.37.34.95.76v-.73c0-.66-.03-1.22-.07-1.72.41.05.85.07,1.56.07h4.06c.73,0,1.17-.02,1.53-.07-.05.41-.05.82-.05,1.8v3.62q.02,1.38.05,1.7c-.31-.02-.7-.03-1.21-.03h-1.67ZM103.61,45.08c-.17-1.26-.36-2.07-.73-3.2l1.29-.41c.41,1.21.6,2.02.75,3.14l-1.31.46ZM105.01,36.82h2.57c.24,0,.37,0,.54-.02-.8-.8-1.24-1.36-1.79-2.28-.49.97-.9,1.55-1.6,2.29h.27ZM106.96,45.19c.68-.14,1.02-.22,2.01-.51l.02,1.31c.32-.05.44-.08.71-.14v-9.88q-.07.08-.17.2c-.32.39-.54.75-.78,1.21l-.22-.2v1.09c-.32-.03-.61-.05-1-.05h-.56v1.19h.83c.61,0,1-.02,1.36-.07v1.65c-.44-.05-.73-.07-1.36-.07h-.83v4.27ZM107.22,44.12c.34-.88.54-1.58.73-2.67l1.22.43c-.29,1.14-.48,1.68-.85,2.62l-1.1-.37ZM111.35,36.3h3.74v-1.22h-3.74v1.22ZM111.35,39h3.74v-1.21h-3.74v1.21ZM111.35,40.55v4.95c1.07-.27,1.27-.34,2.43-.73-.78-1.34-1.12-2.33-1.45-4.22h-.99Z"/>
        <path class="cls-3" d="M122.18,42.86c0-.66,0-.88.03-1.89-.44.51-.93.97-1.48,1.38-.27-.73-.46-1.16-.83-1.75,1.73-1.1,3.4-2.89,4.03-4.3l1.53,1.02c-.17.19-.31.37-.54.71-.37.54-.51.73-.94,1.26v6.44c0,.88.03,1.53.1,2.06h-2.02c.07-.51.12-1.22.12-2.07v-2.86ZM125.2,33.75q-.2.22-.49.56c-1.11,1.31-2.21,2.28-3.76,3.26-.34-.65-.59-1.04-1.02-1.55,1.27-.7,2.11-1.34,2.91-2.24.37-.41.58-.71.8-1.14l1.56,1.1ZM127.41,39.36c-.76,0-1.5.03-2.01.1v-1.84c.51.07,1.22.1,2.01.1h5.54c.92,0,1.58-.03,1.99-.1v1.84c-.54-.07-1.22-.1-1.94-.1h-.7v6.49c0,1.41-.48,1.75-2.43,1.75-.59,0-1.12-.02-1.84-.05-.08-.71-.2-1.16-.46-1.82.85.12,1.7.19,2.21.19.65,0,.73-.05.73-.41v-6.15h-3.11ZM126.05,33.48c.44.07,1.05.1,1.9.1h4.4c.83,0,1.38-.03,1.87-.1v1.82c-.58-.07-1.19-.1-1.84-.1h-4.44c-.68,0-1.38.03-1.9.1v-1.82Z"/>
        <path class="cls-3" d="M142.02,42.88c.05.08.07.15.07.24,0,.12-.02.14-.17.51-.34.78-.75,2.01-.95,2.92-.05.19-.1.29-.17.32-.08.03-.66.12-.85.12h-.07c-.08,0-.2-.02-.34-.02-.22,0-.27-.05-.34-.25-.32-1.1-.58-3.38-.58-5.1,0-1.87.12-3.03.59-5.58.17-.92.25-1.43.32-1.99.71.14,1.33.31,1.84.54.29.12.37.2.37.37,0,.12-.02.17-.2.44-.56.9-1.19,4.5-1.19,6.94,0,.39.02.92.07,1.77.48-1.07.65-1.39,1.04-2.23.15.36.25.53.56.99ZM145.71,44.08c.54.29,1.19.39,2.33.39s1.73-.08,2.79-.39c.1-.03.19-.05.24-.05.12,0,.2.07.22.24.08.58.15,1.26.15,1.6,0,.17-.05.22-.29.29-.92.24-1.85.36-2.99.36-1.56,0-2.53-.19-3.33-.66-.75-.46-1.53-1.39-1.53-1.85,0-.24.36-.56,1.27-1.12.31.61.6.92,1.14,1.21ZM144.52,35.41c.37.08,1.46.15,2.29.15,1.12,0,2.24-.08,3.3-.27q.08-.02.15-.02c.12,0,.17.05.2.19.03.17.08.92.08,1.38,0,.25-.05.34-.24.37-.7.14-1.85.22-3.08.22-1.46,0-2.77-.09-2.94-.19-.08-.05-.12-.17-.12-.48,0-.46.05-1.14.08-1.27.02-.07.07-.1.17-.1.02,0,.05,0,.08.02Z"/>
        <path class="cls-3" d="M159.56,36.94c-.78.05-1.51.07-2.16.07-.71,0-.77,0-.8-.1-.05-.1-.1-.82-.1-1.31v-.32c.8.03,1.14.05,1.56.05s1.07-.02,1.58-.03c.08-.99.1-1.33.1-1.67,0-.15,0-.26-.02-.49.82.02,1.45.07,1.94.19.14.03.2.1.2.22,0,.09-.02.15-.1.36-.14.32-.24.76-.31,1.29,1.09-.08,2.4-.25,2.92-.37.51-.12.87-.19.95-.19.36-.03.61-.1.71-.19.02-.02.03-.02.03-.02.03,0,.05.02.08.02.07,0,.12.07.15.19.03.26.08.85.08,1.22,0,.25-.05.32-.22.36-1,.2-3.08.46-4.86.61-.02.07-.02.1-.02.27-.03.32-.03.36-.05,1.21.75-.17,1.41-.25,2.24-.25.12-.54.14-.68.17-1.07,1.31.27,1.95.51,1.95.71,0,.07-.02.12-.15.34-.05.07-.08.12-.12.24,2.19.51,3.59,2.12,3.59,4.22,0,1.85-1,3.33-2.92,4.35-.71.37-1.72.71-2.09.71-.19,0-.32-.07-.43-.2-.36-.51-.58-.75-1.12-1.21,1.77-.32,2.63-.68,3.48-1.38.78-.66,1.16-1.43,1.16-2.38,0-1.36-.8-2.38-2.16-2.77-1.02,2.35-1.7,3.45-2.92,4.71.08.29.15.46.31.82.07.14.08.19.08.24,0,.17-.07.22-.46.42-.42.22-.92.39-1.09.39-.15,0-.19-.05-.37-.58-.99.7-2.04,1.07-3.08,1.07-1.16,0-1.94-.94-1.94-2.29,0-2.12,1.55-4.2,4.11-5.47.02-.88.03-1.63.05-1.97ZM157.16,44.08c0,.43.25.68.68.68.58,0,1.34-.32,2.11-.88-.24-1.16-.34-1.94-.43-3.21-1.5,1.1-2.36,2.38-2.36,3.42ZM163.11,39.39c-.76.07-1.17.14-1.87.37.03,1.21.07,1.72.2,2.58.71-.9,1.19-1.75,1.67-2.96Z"/>
        <path class="cls-3" d="M179.43,37.45c-3.72.22-5.17.39-6.24.68-.07.02-.14.03-.19.03-.12,0-.22-.09-.27-.22-.15-.42-.24-.99-.29-1.85.2.02.34.02.41.02.54,0,1.05-.02,2.69-.12,1.26-.07,2.33-.12,3.86-.19-.02-1.53-.03-1.75-.19-2.53,1.31.03,1.97.1,2.21.2.1.03.15.12.15.29,0,.03-.02.1-.05.19-.15.37-.2.77-.24,1.8,2.48-.05,2.86-.05,4.56-.05.46,0,.53,0,.58.05.07.07.1.32.1.9,0,.78-.02.87-.24.87h-.07c-.73-.08-2.55-.15-3.74-.15q-.39,0-1.24.02l-.03,2.79c.26.58.34,1.04.34,1.85,0,2.14-.78,3.77-2.43,4.98-.68.51-1.55.95-1.85.95-.15,0-.24-.05-.37-.19-.48-.54-.83-.83-1.44-1.17,1.02-.29,1.55-.51,2.21-.93.49-.31.93-.68,1.26-1.04.22-.25.39-.51.65-1.07-.51.53-.9.7-1.53.7-1.43,0-2.36-1.09-2.36-2.74,0-1.73,1.1-2.98,2.63-2.98.49,0,.8.05,1.14.2v-1.29ZM177.38,41.41c0,.71.41,1.21,1.02,1.21.65,0,1.04-.46,1.04-1.22s-.37-1.26-1.02-1.26c-.61,0-1.04.53-1.04,1.27ZM183.87,35.23c-.48-.85-.85-1.36-1.27-1.78-.03-.03-.05-.08-.05-.14,0-.07.15-.22.39-.37q.41-.25.49-.25c.15,0,.39.22.88.83.44.54.73.97.73,1.1,0,.08-.05.14-.27.32-.27.24-.61.44-.71.44-.08,0-.14-.03-.19-.15ZM186.01,32.44c.48.53.9,1.14.9,1.29,0,.12-.1.22-.44.46-.24.15-.44.26-.51.26q-.1,0-.41-.51c-.25-.46-.58-.87-1.02-1.33-.03-.03-.05-.1-.05-.14,0-.12.1-.22.37-.37.22-.14.42-.22.51-.22.12,0,.31.15.65.56Z"/>
        <path class="cls-3" d="M191.79,33.87v-.24c1.07.19,1.62.34,2.06.56.12.05.15.12.15.24,0,.07-.03.15-.1.27-.15.27-.2.48-.46,1.6-.32,1.46-.49,3.09-.49,4.88,0,.95.03,1.48.14,2.38l.9-1.82c.1.36.24.65.44.88.14.17.15.22.15.36s0,.14-.32.85c-.36.77-.56,1.43-.75,2.29-.05.27-.1.36-.19.39-.14.07-.71.15-1.05.15-.24,0-.32-.05-.37-.2-.41-1.16-.75-3.54-.75-5.24,0-1.46.19-3.48.49-5.61.1-.7.15-1.21.15-1.56v-.19ZM197.59,38.68c-.95,0-1.22-.03-1.31-.15-.12-.15-.22-.85-.22-1.48v-.25c.68.07,1.22.1,2.09.1.66,0,1.04-.02,1.72-.07-.05-1.77-.15-2.82-.36-3.37h.46c.59,0,1.33.05,1.7.14.17.03.25.14.25.27,0,.07-.02.14-.05.25-.08.24-.14.61-.14,1.05,0,.26.02,1.05.02,1.26v.17c.85-.14,1.26-.22,1.97-.46.07-.02.14-.03.2-.03.1,0,.15.05.19.15.07.19.14.85.14,1.22,0,.27-.05.39-.19.44-.22.08-1.26.29-2.26.42.02.48.02.73.02,1,0,2.5-.31,4.28-.99,5.63-.61,1.21-1.94,2.62-2.48,2.62-.15,0-.22-.03-.41-.2-.56-.49-.66-.58-1.33-.88,1.19-.66,1.95-1.38,2.48-2.35.56-1.04.87-2.46.87-4.03,0-.12,0-.41-.02-.82-.02-.17-.02-.43-.03-.77-.61.05-1.99.12-2.33.12Z"/>
        <path class="cls-3" d="M216.29,38.76c2.4,0,4.1,1.63,4.1,3.94,0,1.58-.83,3.01-2.23,3.84-.97.58-2.16.87-3.5.87-2.16,0-3.42-.87-3.42-2.35,0-1.34,1.12-2.29,2.72-2.29,1.45,0,2.48.73,3.18,2.23.87-.63,1.22-1.29,1.22-2.21,0-1.46-1.04-2.41-2.67-2.41s-3.45.83-4.93,2.31c-.27.27-.53.56-.83.95-.12.17-.2.24-.31.24-.31,0-1.51-1.19-1.51-1.5,0-.15.07-.24.44-.51.39-.31.95-.8,1.67-1.48,1.65-1.56,2.86-2.87,4.64-5.05-2.12.27-3.55.51-4.08.7-.09.02-.14.03-.19.03-.14,0-.22-.08-.32-.34-.2-.51-.31-1.07-.36-1.82.46.07.78.08,1.16.08.82,0,2.19-.12,3.98-.32.63-.07.83-.12,1.31-.31.15-.07.24-.08.34-.08.24,0,.48.2.92.88.32.44.42.66.42.8,0,.22-.05.29-.42.53-.31.19-.49.34-.88.71-.85.82-.87.82-1.92,1.89-.75.77-.83.85-1.51,1.53,1.1-.61,1.97-.87,2.99-.87ZM214.66,44.64c-.25-.17-.54-.25-.87-.25-.53,0-.87.25-.87.66,0,.49.53.8,1.34.8.37,0,.7-.03,1.12-.15-.2-.56-.37-.82-.73-1.05Z"/>
        <path class="cls-3" d="M229.62,38.47c-.22-.75-.29-1.21-.49-3.3-.07-.82-.14-1.22-.31-1.8,1.04.02,1.7.07,2.16.19.25.07.37.19.37.37,0,.07-.02.15-.05.29-.12.41-.17.71-.17,1.16,0,.83.17,2.19.36,2.79.1.32.2.44.39.44.41,0,1.9-.78,2.72-1.41.22-.17.25-.19.34-.19.15,0,.31.12.56.44.42.58.77,1.21.77,1.44,0,.19-.12.31-.41.39-1.05.29-2.79.97-3.96,1.53-2.07,1.02-3.01,1.96-3.01,3.01s.87,1.46,3.06,1.46c1.28,0,2.43-.12,4-.37.07-.02.19-.03.22-.03.14,0,.22.07.29.2.05.17.17,1.21.17,1.61,0,.24-.07.32-.29.39-.37.08-2.43.2-3.72.2-2.18,0-3.62-.29-4.52-.9-.76-.53-1.17-1.36-1.17-2.38,0-.78.22-1.48.68-2.16.6-.88,1.24-1.44,2.67-2.29-.36-.32-.49-.56-.65-1.09Z"/>
        <path class="cls-3" d="M247.04,38.47c-.22-.75-.29-1.21-.49-3.3-.07-.82-.14-1.22-.31-1.8,1.04.02,1.7.07,2.16.19.25.07.37.19.37.37,0,.07-.02.15-.05.29-.12.41-.17.71-.17,1.16,0,.83.17,2.19.36,2.79.1.32.2.44.39.44.41,0,1.9-.78,2.72-1.41.22-.17.25-.19.34-.19.15,0,.31.12.56.44.42.58.77,1.21.77,1.44,0,.19-.12.31-.41.39-1.05.29-2.79.97-3.96,1.53-2.07,1.02-3.01,1.96-3.01,3.01s.87,1.46,3.06,1.46c1.28,0,2.43-.12,4-.37.07-.02.19-.03.22-.03.14,0,.22.07.29.2.05.17.17,1.21.17,1.61,0,.24-.07.32-.29.39-.37.08-2.43.2-3.72.2-2.18,0-3.62-.29-4.52-.9-.76-.53-1.17-1.36-1.17-2.38,0-.78.22-1.48.68-2.16.6-.88,1.24-1.44,2.67-2.29-.36-.32-.49-.56-.65-1.09ZM253.21,34.67c.14-.1.22-.14.32-.14.24,0,1.72,1.56,1.72,1.82,0,.1-.14.25-.46.53-.34.29-.37.31-.46.31-.1,0-.12,0-.44-.48-.34-.48-.82-1.02-1.17-1.33-.05-.05-.08-.1-.08-.15,0-.08.15-.24.58-.56ZM256.9,35.12c0,.1-.05.17-.25.34-.24.2-.56.43-.63.43-.1,0-.14-.05-.34-.32-.39-.56-.63-.83-1.24-1.39-.07-.07-.08-.1-.08-.15,0-.15.65-.65.85-.65.29,0,1.7,1.44,1.7,1.75Z"/>
        <path class="cls-3" d="M264.72,37.44c1.11-.29,1.84-.39,2.63-.39,2.41,0,3.81,1.43,3.81,3.88,0,2.12-.92,3.84-2.77,5.2-.99.73-2.48,1.46-2.97,1.46-.22,0-.27-.05-.63-.56-.25-.39-.51-.63-.93-.94,1.95-.66,2.77-1.09,3.65-1.85,1.02-.9,1.53-1.99,1.53-3.28,0-1.38-.65-2.16-1.79-2.16-.92,0-2.11.36-3.65,1.1-.22.1-.34.19-.63.39-.07.03-.14.07-.2.07-.32,0-.87-.95-1.24-2.23.63-.05.95-.14,3.2-.7ZM265.86,33.29c.61.19,1.53.36,2.36.46.34.03.46.05,1.33.08.25,0,.32.07.32.25,0,.56-.12,1.48-.22,1.65-.03.1-.12.14-.24.14-.39,0-1.77-.19-2.57-.36-1.34-.27-2.52-.61-2.75-.8-.05-.05-.08-.12-.08-.19,0-.14.36-1.05.53-1.38.08-.14.14-.17.24-.17q.08,0,1.09.31Z"/>
        <path class="cls-3" d="M278.76,37.83c-.31.02-.49.03-.7.05-.15.02-.17.02-.19.02-.14,0-.2-.05-.25-.22-.08-.27-.2-1.17-.22-1.68.19.02.68.03,1.29.03.19,0,1.53-.08,2.12-.14.29-1.38.39-2.09.39-3.01,1.75.24,2.38.44,2.38.76,0,.12-.02.15-.27.54-.14.2-.19.39-.48,1.44.8-.14,1.27-.25,1.9-.46.12-.03.17-.05.26-.05.12,0,.15.08.25.58.08.42.14.78.14.97,0,.2-.05.24-.49.34-.58.14-1.56.31-2.62.44-.63,1.9-1.05,2.92-1.84,4.52-.6,1.19-.94,1.82-1.39,2.53-.14.2-.22.27-.34.27-.17,0-.65-.26-1.24-.7-.27-.19-.34-.27-.34-.39s.07-.22.29-.53c.49-.61,1.14-1.67,1.7-2.79.48-.94.65-1.33,1.14-2.67-.66.05-.71.07-1.5.12ZM284.36,47.62c-1.85,0-3.11-1.02-3.11-2.53s1.31-2.74,3.06-2.74c.41,0,.59.02,1.29.12-.07-.82-.07-1.14-.14-2.72,0-.32-.03-.77-.07-1.31.87.09,1.53.19,1.85.32.14.05.2.14.2.27,0,.08-.02.15-.03.27-.08.36-.1.61-.1,1.07,0,.63.05,1.7.1,2.53,1.21.54,1.7.82,2.55,1.48.37.29.51.44.51.58,0,.17-.08.32-.56,1.09-.2.34-.36.49-.48.49q-.1,0-.58-.44c-.37-.37-.8-.66-1.39-1.02,0,1.58-1.16,2.53-3.11,2.53ZM284.32,43.98c-.82,0-1.38.39-1.38.99,0,.56.51.92,1.28.92.9,0,1.38-.46,1.38-1.36,0-.14,0-.27-.02-.27-.34-.17-.8-.27-1.26-.27ZM290.68,39.15c-.2.29-.31.37-.42.37-.08,0-.15-.03-.27-.15-.43-.41-1.02-.85-1.65-1.24q-.41-.25-1.16-.6c-.24-.1-.32-.17-.32-.31,0-.12.08-.27.34-.66.41-.59.51-.7.66-.7.32,0,1.58.65,2.48,1.26.73.49.95.7.95.88,0,.14-.27.65-.61,1.14Z"/>
        <path class="cls-3" d="M303.41,38.76c2.4,0,4.1,1.63,4.1,3.94,0,1.58-.83,3.01-2.23,3.84-.97.58-2.16.87-3.5.87-2.16,0-3.42-.87-3.42-2.35,0-1.34,1.12-2.29,2.72-2.29,1.45,0,2.48.73,3.18,2.23.87-.63,1.22-1.29,1.22-2.21,0-1.46-1.04-2.41-2.67-2.41s-3.45.83-4.93,2.31c-.27.27-.53.56-.83.95-.12.17-.2.24-.31.24-.31,0-1.51-1.19-1.51-1.5,0-.15.07-.24.44-.51.39-.31.95-.8,1.67-1.48,1.65-1.56,2.86-2.87,4.64-5.05-2.12.27-3.55.51-4.08.7-.09.02-.14.03-.19.03-.14,0-.22-.08-.32-.34-.2-.51-.31-1.07-.36-1.82.46.07.78.08,1.16.08.82,0,2.19-.12,3.98-.32.63-.07.83-.12,1.31-.31.15-.07.24-.08.34-.08.24,0,.48.2.92.88.32.44.42.66.42.8,0,.22-.05.29-.42.53-.31.19-.49.34-.88.71-.85.82-.87.82-1.92,1.89-.75.77-.83.85-1.51,1.53,1.1-.61,1.97-.87,2.99-.87ZM301.78,44.64c-.25-.17-.54-.25-.87-.25-.53,0-.87.25-.87.66,0,.49.53.8,1.34.8.37,0,.7-.03,1.12-.15-.2-.56-.37-.82-.73-1.05Z"/>
        <path class="cls-3" d="M314.74,36.18c.39-1.02.76-1.56,1.41-2.11.78-.65,1.72-.95,2.91-.95,2.55,0,4.18,1.39,4.18,3.57,0,.73-.2,1.43-.59,1.99-.31.44-.44.58-1.39,1.44-1.33,1.19-1.61,1.65-1.61,2.55v.9h-1.73v-.95c0-.76.15-1.44.46-1.99.24-.42.49-.71,1.17-1.39.71-.7.94-.95,1.12-1.26.24-.34.37-.82.37-1.27,0-1.14-.76-1.85-1.97-1.85s-1.92.63-2.43,2.11l-1.89-.78ZM320.16,46.09c0,.75-.59,1.34-1.34,1.34s-1.34-.59-1.34-1.34.59-1.34,1.34-1.34,1.34.59,1.34,1.34Z"/>
      </g>
    </g>
  </g>
</svg>